<mxfile host="app.diagrams.net" agent="Mozilla/5.0 (Windows NT 10.0; Win64; x64) AppleWebKit/537.36 (KHTML, like Gecko) Chrome/134.0.0.0 Safari/537.36 Edg/134.0.0.0" version="26.1.3" pages="2">
  <diagram name="CASO DE USO" id="tVLIGXUynHrYglQ0mXT4">
    <mxGraphModel dx="1042" dy="535" grid="1" gridSize="10" guides="1" tooltips="1" connect="1" arrows="1" fold="1" page="1" pageScale="1" pageWidth="827" pageHeight="1169" math="0" shadow="0">
      <root>
        <mxCell id="0" />
        <mxCell id="1" parent="0" />
        <mxCell id="DCy0Q3IaEg-8kjHM9MwT-11" value="CASO DE USO" style="swimlane;whiteSpace=wrap;html=1;fillColor=#f8cecc;strokeColor=#b85450;" vertex="1" parent="1">
          <mxGeometry x="17" y="20" width="783" height="880" as="geometry" />
        </mxCell>
        <mxCell id="DCy0Q3IaEg-8kjHM9MwT-17" style="edgeStyle=orthogonalEdgeStyle;rounded=0;orthogonalLoop=1;jettySize=auto;html=1;exitX=1;exitY=0.3333333333333333;exitDx=0;exitDy=0;exitPerimeter=0;entryX=0;entryY=0.5;entryDx=0;entryDy=0;" edge="1" parent="DCy0Q3IaEg-8kjHM9MwT-11" source="DCy0Q3IaEg-8kjHM9MwT-1" target="DCy0Q3IaEg-8kjHM9MwT-6">
          <mxGeometry relative="1" as="geometry" />
        </mxCell>
        <mxCell id="DCy0Q3IaEg-8kjHM9MwT-18" style="edgeStyle=orthogonalEdgeStyle;rounded=0;orthogonalLoop=1;jettySize=auto;html=1;exitX=1;exitY=1;exitDx=0;exitDy=0;exitPerimeter=0;entryX=0;entryY=0.5;entryDx=0;entryDy=0;" edge="1" parent="DCy0Q3IaEg-8kjHM9MwT-11" source="DCy0Q3IaEg-8kjHM9MwT-1" target="DCy0Q3IaEg-8kjHM9MwT-14">
          <mxGeometry relative="1" as="geometry" />
        </mxCell>
        <mxCell id="DCy0Q3IaEg-8kjHM9MwT-1" value="Cliente" style="shape=umlActor;verticalLabelPosition=bottom;verticalAlign=top;html=1;outlineConnect=0;" vertex="1" parent="DCy0Q3IaEg-8kjHM9MwT-11">
          <mxGeometry x="40" y="70" width="30" height="60" as="geometry" />
        </mxCell>
        <mxCell id="DCy0Q3IaEg-8kjHM9MwT-6" value="Cadastrar de Cliente" style="ellipse;whiteSpace=wrap;html=1;" vertex="1" parent="DCy0Q3IaEg-8kjHM9MwT-11">
          <mxGeometry x="130" y="40" width="120" height="80" as="geometry" />
        </mxCell>
        <mxCell id="DCy0Q3IaEg-8kjHM9MwT-7" value="Cadastro de Usuários" style="ellipse;whiteSpace=wrap;html=1;" vertex="1" parent="DCy0Q3IaEg-8kjHM9MwT-11">
          <mxGeometry x="450" y="140" width="120" height="80" as="geometry" />
        </mxCell>
        <mxCell id="DCy0Q3IaEg-8kjHM9MwT-12" value="CADASTRAR PRODUTOS" style="ellipse;whiteSpace=wrap;html=1;" vertex="1" parent="DCy0Q3IaEg-8kjHM9MwT-11">
          <mxGeometry x="450" y="40" width="120" height="80" as="geometry" />
        </mxCell>
        <mxCell id="DCy0Q3IaEg-8kjHM9MwT-19" style="edgeStyle=orthogonalEdgeStyle;rounded=0;orthogonalLoop=1;jettySize=auto;html=1;exitX=1;exitY=0.3333333333333333;exitDx=0;exitDy=0;exitPerimeter=0;entryX=0;entryY=0.5;entryDx=0;entryDy=0;" edge="1" parent="DCy0Q3IaEg-8kjHM9MwT-11" source="DCy0Q3IaEg-8kjHM9MwT-3" target="DCy0Q3IaEg-8kjHM9MwT-13">
          <mxGeometry relative="1" as="geometry" />
        </mxCell>
        <mxCell id="DCy0Q3IaEg-8kjHM9MwT-30" style="edgeStyle=orthogonalEdgeStyle;rounded=0;orthogonalLoop=1;jettySize=auto;html=1;exitX=1;exitY=1;exitDx=0;exitDy=0;exitPerimeter=0;entryX=0;entryY=0.5;entryDx=0;entryDy=0;" edge="1" parent="DCy0Q3IaEg-8kjHM9MwT-11" source="DCy0Q3IaEg-8kjHM9MwT-3" target="DCy0Q3IaEg-8kjHM9MwT-29">
          <mxGeometry relative="1" as="geometry" />
        </mxCell>
        <mxCell id="4bsKi9ic9OcVSogXh3Li-1" style="edgeStyle=orthogonalEdgeStyle;rounded=0;orthogonalLoop=1;jettySize=auto;html=1;exitX=1;exitY=0.3333333333333333;exitDx=0;exitDy=0;exitPerimeter=0;entryX=0.5;entryY=0;entryDx=0;entryDy=0;" edge="1" parent="DCy0Q3IaEg-8kjHM9MwT-11" source="DCy0Q3IaEg-8kjHM9MwT-3" target="DCy0Q3IaEg-8kjHM9MwT-6">
          <mxGeometry relative="1" as="geometry">
            <Array as="points">
              <mxPoint x="23" y="300" />
              <mxPoint x="23" y="40" />
            </Array>
          </mxGeometry>
        </mxCell>
        <mxCell id="DCy0Q3IaEg-8kjHM9MwT-3" value="Usuário/Atendente" style="shape=umlActor;verticalLabelPosition=bottom;verticalAlign=top;html=1;outlineConnect=0;" vertex="1" parent="DCy0Q3IaEg-8kjHM9MwT-11">
          <mxGeometry x="40" y="280" width="30" height="60" as="geometry" />
        </mxCell>
        <mxCell id="DCy0Q3IaEg-8kjHM9MwT-13" value="REALIZAR VENDAS;" style="ellipse;whiteSpace=wrap;html=1;fillColor=#f5f5f5;fontColor=#333333;strokeColor=#666666;" vertex="1" parent="DCy0Q3IaEg-8kjHM9MwT-11">
          <mxGeometry x="130" y="240" width="120" height="80" as="geometry" />
        </mxCell>
        <mxCell id="DCy0Q3IaEg-8kjHM9MwT-14" value="REALIZAR COMPRA" style="ellipse;whiteSpace=wrap;html=1;" vertex="1" parent="DCy0Q3IaEg-8kjHM9MwT-11">
          <mxGeometry x="130" y="140" width="120" height="80" as="geometry" />
        </mxCell>
        <mxCell id="DCy0Q3IaEg-8kjHM9MwT-15" value="LANÇAR DE ESTOQUE" style="ellipse;whiteSpace=wrap;html=1;" vertex="1" parent="DCy0Q3IaEg-8kjHM9MwT-11">
          <mxGeometry x="450" y="230" width="120" height="80" as="geometry" />
        </mxCell>
        <mxCell id="DCy0Q3IaEg-8kjHM9MwT-16" value="CADASTRAR FORNECEDORES" style="ellipse;whiteSpace=wrap;html=1;" vertex="1" parent="DCy0Q3IaEg-8kjHM9MwT-11">
          <mxGeometry x="450" y="320" width="120" height="80" as="geometry" />
        </mxCell>
        <mxCell id="DCy0Q3IaEg-8kjHM9MwT-27" style="edgeStyle=orthogonalEdgeStyle;rounded=0;orthogonalLoop=1;jettySize=auto;html=1;exitX=0.5;exitY=0;exitDx=0;exitDy=0;exitPerimeter=0;entryX=0;entryY=0.5;entryDx=0;entryDy=0;" edge="1" parent="DCy0Q3IaEg-8kjHM9MwT-11" source="DCy0Q3IaEg-8kjHM9MwT-10" target="DCy0Q3IaEg-8kjHM9MwT-7">
          <mxGeometry relative="1" as="geometry" />
        </mxCell>
        <mxCell id="DCy0Q3IaEg-8kjHM9MwT-28" style="edgeStyle=orthogonalEdgeStyle;rounded=0;orthogonalLoop=1;jettySize=auto;html=1;exitX=1;exitY=0.3333333333333333;exitDx=0;exitDy=0;exitPerimeter=0;entryX=0;entryY=0.5;entryDx=0;entryDy=0;" edge="1" parent="DCy0Q3IaEg-8kjHM9MwT-11" source="DCy0Q3IaEg-8kjHM9MwT-10" target="DCy0Q3IaEg-8kjHM9MwT-15">
          <mxGeometry relative="1" as="geometry" />
        </mxCell>
        <mxCell id="DCy0Q3IaEg-8kjHM9MwT-32" style="edgeStyle=orthogonalEdgeStyle;rounded=0;orthogonalLoop=1;jettySize=auto;html=1;exitX=1;exitY=1;exitDx=0;exitDy=0;exitPerimeter=0;entryX=0;entryY=0.5;entryDx=0;entryDy=0;" edge="1" parent="DCy0Q3IaEg-8kjHM9MwT-11" source="DCy0Q3IaEg-8kjHM9MwT-10" target="DCy0Q3IaEg-8kjHM9MwT-31">
          <mxGeometry relative="1" as="geometry" />
        </mxCell>
        <mxCell id="DCy0Q3IaEg-8kjHM9MwT-10" value="administrador" style="shape=umlActor;verticalLabelPosition=bottom;verticalAlign=top;html=1;outlineConnect=0;" vertex="1" parent="DCy0Q3IaEg-8kjHM9MwT-11">
          <mxGeometry x="354" y="330" width="30" height="60" as="geometry" />
        </mxCell>
        <mxCell id="DCy0Q3IaEg-8kjHM9MwT-23" style="edgeStyle=orthogonalEdgeStyle;rounded=0;orthogonalLoop=1;jettySize=auto;html=1;exitX=0;exitY=1;exitDx=0;exitDy=0;exitPerimeter=0;entryX=1;entryY=0.5;entryDx=0;entryDy=0;" edge="1" parent="DCy0Q3IaEg-8kjHM9MwT-11" source="DCy0Q3IaEg-8kjHM9MwT-10" target="DCy0Q3IaEg-8kjHM9MwT-16">
          <mxGeometry relative="1" as="geometry" />
        </mxCell>
        <mxCell id="DCy0Q3IaEg-8kjHM9MwT-29" value="FINALIZAR VENDAS" style="ellipse;whiteSpace=wrap;html=1;fillColor=#f5f5f5;fontColor=#333333;strokeColor=#666666;" vertex="1" parent="DCy0Q3IaEg-8kjHM9MwT-11">
          <mxGeometry x="130" y="350" width="120" height="80" as="geometry" />
        </mxCell>
        <mxCell id="DCy0Q3IaEg-8kjHM9MwT-31" value="CADASTRAR RECEITAS" style="ellipse;whiteSpace=wrap;html=1;" vertex="1" parent="DCy0Q3IaEg-8kjHM9MwT-11">
          <mxGeometry x="460" y="410" width="120" height="80" as="geometry" />
        </mxCell>
        <mxCell id="DCy0Q3IaEg-8kjHM9MwT-22" style="edgeStyle=orthogonalEdgeStyle;rounded=0;orthogonalLoop=1;jettySize=auto;html=1;exitX=1;exitY=1;exitDx=0;exitDy=0;exitPerimeter=0;entryX=1;entryY=0.5;entryDx=0;entryDy=0;" edge="1" parent="1" source="DCy0Q3IaEg-8kjHM9MwT-2" target="DCy0Q3IaEg-8kjHM9MwT-15">
          <mxGeometry relative="1" as="geometry" />
        </mxCell>
        <mxCell id="DCy0Q3IaEg-8kjHM9MwT-2" value="Gerente" style="shape=umlActor;verticalLabelPosition=bottom;verticalAlign=top;html=1;outlineConnect=0;" vertex="1" parent="1">
          <mxGeometry x="730" y="110" width="30" height="60" as="geometry" />
        </mxCell>
        <mxCell id="DCy0Q3IaEg-8kjHM9MwT-24" style="edgeStyle=orthogonalEdgeStyle;rounded=0;orthogonalLoop=1;jettySize=auto;html=1;exitX=0;exitY=0.3333333333333333;exitDx=0;exitDy=0;exitPerimeter=0;" edge="1" parent="1" source="DCy0Q3IaEg-8kjHM9MwT-10">
          <mxGeometry relative="1" as="geometry">
            <mxPoint x="470" y="70" as="targetPoint" />
            <Array as="points">
              <mxPoint x="379" y="410" />
              <mxPoint x="379" y="231" />
              <mxPoint x="380" y="70" />
            </Array>
          </mxGeometry>
        </mxCell>
        <mxCell id="DCy0Q3IaEg-8kjHM9MwT-20" style="edgeStyle=orthogonalEdgeStyle;rounded=0;orthogonalLoop=1;jettySize=auto;html=1;exitX=0;exitY=0.3333333333333333;exitDx=0;exitDy=0;exitPerimeter=0;entryX=1.006;entryY=0.336;entryDx=0;entryDy=0;entryPerimeter=0;" edge="1" parent="1" source="DCy0Q3IaEg-8kjHM9MwT-2" target="DCy0Q3IaEg-8kjHM9MwT-12">
          <mxGeometry relative="1" as="geometry" />
        </mxCell>
        <mxCell id="DCy0Q3IaEg-8kjHM9MwT-21" style="edgeStyle=orthogonalEdgeStyle;rounded=0;orthogonalLoop=1;jettySize=auto;html=1;exitX=0;exitY=1;exitDx=0;exitDy=0;exitPerimeter=0;entryX=1.027;entryY=0.593;entryDx=0;entryDy=0;entryPerimeter=0;" edge="1" parent="1" source="DCy0Q3IaEg-8kjHM9MwT-2" target="DCy0Q3IaEg-8kjHM9MwT-7">
          <mxGeometry relative="1" as="geometry" />
        </mxCell>
        <mxCell id="4bsKi9ic9OcVSogXh3Li-2" style="edgeStyle=orthogonalEdgeStyle;rounded=0;orthogonalLoop=1;jettySize=auto;html=1;exitX=0.5;exitY=0;exitDx=0;exitDy=0;exitPerimeter=0;entryX=0.558;entryY=-0.045;entryDx=0;entryDy=0;entryPerimeter=0;" edge="1" parent="1" source="DCy0Q3IaEg-8kjHM9MwT-2" target="DCy0Q3IaEg-8kjHM9MwT-6">
          <mxGeometry relative="1" as="geometry" />
        </mxCell>
      </root>
    </mxGraphModel>
  </diagram>
  <diagram id="I6MiLbrevk-Ata1137dH" name="CLASSES">
    <mxGraphModel dx="1042" dy="535" grid="1" gridSize="10" guides="1" tooltips="1" connect="1" arrows="1" fold="1" page="1" pageScale="1" pageWidth="827" pageHeight="1169" math="0" shadow="0">
      <root>
        <mxCell id="0" />
        <mxCell id="1" parent="0" />
        <mxCell id="GaZOpQADpWIk3F25-4Ug-1" value="CLIENTE" style="swimlane;fontStyle=1;align=center;verticalAlign=top;childLayout=stackLayout;horizontal=1;startSize=26;horizontalStack=0;resizeParent=1;resizeParentMax=0;resizeLast=0;collapsible=1;marginBottom=0;whiteSpace=wrap;html=1;" vertex="1" parent="1">
          <mxGeometry x="310" y="10" width="160" height="244" as="geometry" />
        </mxCell>
        <mxCell id="GaZOpQADpWIk3F25-4Ug-2" value="Nome&lt;div&gt;CPF&lt;/div&gt;&lt;div&gt;Email&lt;/div&gt;&lt;div&gt;Endereço&lt;/div&gt;" style="text;strokeColor=none;fillColor=none;align=left;verticalAlign=top;spacingLeft=4;spacingRight=4;overflow=hidden;rotatable=0;points=[[0,0.5],[1,0.5]];portConstraint=eastwest;whiteSpace=wrap;html=1;" vertex="1" parent="GaZOpQADpWIk3F25-4Ug-1">
          <mxGeometry y="26" width="160" height="84" as="geometry" />
        </mxCell>
        <mxCell id="GaZOpQADpWIk3F25-4Ug-3" value="" style="line;strokeWidth=1;fillColor=none;align=left;verticalAlign=middle;spacingTop=-1;spacingLeft=3;spacingRight=3;rotatable=0;labelPosition=right;points=[];portConstraint=eastwest;strokeColor=inherit;" vertex="1" parent="GaZOpQADpWIk3F25-4Ug-1">
          <mxGeometry y="110" width="160" height="8" as="geometry" />
        </mxCell>
        <mxCell id="GaZOpQADpWIk3F25-4Ug-4" value="+cadastrarCliente();" style="text;strokeColor=none;fillColor=none;align=left;verticalAlign=top;spacingLeft=4;spacingRight=4;overflow=hidden;rotatable=0;points=[[0,0.5],[1,0.5]];portConstraint=eastwest;whiteSpace=wrap;html=1;" vertex="1" parent="GaZOpQADpWIk3F25-4Ug-1">
          <mxGeometry y="118" width="160" height="42" as="geometry" />
        </mxCell>
        <mxCell id="c76i7xs37MiYL5RRScVn-4" value="+editarCliente()" style="text;strokeColor=none;fillColor=none;align=left;verticalAlign=top;spacingLeft=4;spacingRight=4;overflow=hidden;rotatable=0;points=[[0,0.5],[1,0.5]];portConstraint=eastwest;whiteSpace=wrap;html=1;" vertex="1" parent="GaZOpQADpWIk3F25-4Ug-1">
          <mxGeometry y="160" width="160" height="42" as="geometry" />
        </mxCell>
        <mxCell id="c76i7xs37MiYL5RRScVn-5" value="+excluirCadastro" style="text;strokeColor=none;fillColor=none;align=left;verticalAlign=top;spacingLeft=4;spacingRight=4;overflow=hidden;rotatable=0;points=[[0,0.5],[1,0.5]];portConstraint=eastwest;whiteSpace=wrap;html=1;" vertex="1" parent="GaZOpQADpWIk3F25-4Ug-1">
          <mxGeometry y="202" width="160" height="42" as="geometry" />
        </mxCell>
      </root>
    </mxGraphModel>
  </diagram>
</mxfile>
